<svg width="239" height="134" viewBox="0 0 239 134" fill="none" xmlns="http://www.w3.org/2000/svg">
<path d="M46.0192 94.3155H53.0988C53.0988 98.5229 55.2529 100.268 58.3807 100.268C61.5084 100.268 63.5591 98.8834 63.5591 95.9071C63.5591 92.9309 60.278 91.903 56.5332 90.7256C51.8147 89.1339 46.4792 87.1855 46.4792 79.998C46.4792 73.3782 51.1976 69.3741 58.3768 69.3741C65.5561 69.3741 70.1749 74.0456 70.1749 81.4862H63.1988C63.1988 77.6355 61.3014 75.8405 58.2733 75.8405C55.2453 75.8405 53.5549 77.2788 53.5549 79.998C53.5549 83.0778 56.6328 84.052 60.2206 85.1796C64.9888 86.6678 70.631 88.4128 70.631 95.8534C70.631 102.73 65.7056 106.834 58.373 106.834C51.0405 106.834 46.0115 102.063 46.0115 94.3116L46.0192 94.3155Z" fill="white"/>
<path d="M75.7136 70.0414H96.0247V76.8684H82.7932V85.0799H92.5903V91.2395H82.7932V99.451H96.0247V106.224H75.7136V70.0453V70.0414Z" fill="white"/>
<path d="M101.514 70.0414H108.179L118.797 91.0823V70.0414H125.926V106.22H119.26L108.593 85.2832V106.22H101.517V70.0414H101.514Z" fill="white"/>
<path d="M140.131 70.0414H147.878L158.342 106.22H151.109L149.212 99.0867H138.698L136.697 106.22H129.518L140.135 70.0414H140.131ZM147.724 92.9808L144.033 78.8168L140.185 92.9808H147.724Z" fill="white"/>
<path d="M162.083 70.0414H169.159V106.22H162.083V70.0414Z" fill="white"/>
<path d="M46.8242 111.226H49.6529C51.3586 111.226 52.543 112.273 52.543 114.371V116.637C52.543 118.712 51.3625 119.821 49.6529 119.821H46.8242V111.222V111.226ZM49.4574 118.229C50.2624 118.229 50.8718 117.911 50.8718 116.227V114.555C50.8718 113.627 50.6265 112.836 49.4574 112.836H48.5069V118.229H49.4574Z" fill="white"/>
<path d="M53.8961 111.226H55.5788V119.824H53.8961V111.226Z" fill="white"/>
<path d="M56.6865 116.994H58.3692C58.3692 117.995 58.8829 118.409 59.6265 118.409C60.3701 118.409 60.8568 118.079 60.8568 117.374C60.8568 116.668 60.0749 116.423 59.1857 116.143C58.0626 115.763 56.7977 115.303 56.7977 113.592C56.7977 112.02 57.9208 111.068 59.6265 111.068C61.3322 111.068 62.4284 112.177 62.4284 113.945H60.7687C60.7687 113.028 60.3164 112.603 59.5997 112.603C58.8829 112.603 58.4804 112.944 58.4804 113.592C58.4804 114.325 59.2125 114.555 60.0634 114.823C61.198 115.176 62.5395 115.59 62.5395 117.358C62.5395 118.992 61.3705 119.97 59.6265 119.97C57.8824 119.97 56.6904 118.835 56.6904 116.994H56.6865Z" fill="white"/>
<path d="M64.8547 112.848H63.0646V111.226H68.3312V112.848H66.5412V119.824H64.8585V112.848H64.8547Z" fill="white"/>
<path d="M69.1362 111.226H71.8653C73.5825 111.226 74.74 112.334 74.74 114.336V114.582C74.74 115.912 74.1651 116.802 73.2413 117.216L74.6902 119.828H72.8503L71.6928 117.608H70.815V119.828H69.1323V111.229L69.1362 111.226ZM71.6583 116.008C72.3904 116.008 73.0726 115.69 73.0726 114.559V114.313C73.0726 113.132 72.4134 112.836 71.6583 112.836H70.8189V116.008H71.6583Z" fill="white"/>
<path d="M76.0241 111.226H77.7068V119.824H76.0241V111.226Z" fill="white"/>
<path d="M80.4857 112.848H78.6957V111.226H83.9622V112.848H82.1723V119.824H80.4896V112.848H80.4857Z" fill="white"/>
<path d="M84.5065 116.982V114.056C84.5065 112.3 85.6871 111.068 87.3966 111.068C89.1062 111.068 90.2867 112.3 90.2867 114.056V116.982C90.2867 118.728 89.0908 119.947 87.3966 119.947C85.7024 119.947 84.5065 118.728 84.5065 116.982ZM87.3966 118.336C87.9678 118.336 88.604 118.033 88.604 117.044V113.995C88.604 113.032 88.0329 112.679 87.3966 112.679C86.7987 112.679 86.2007 112.998 86.2007 113.983V117.032C86.2007 117.995 86.7604 118.336 87.3966 118.336Z" fill="white"/>
<path d="M95.3348 112.848H93.5448V111.226H98.8114V112.848H97.0214V119.824H95.3387V112.848H95.3348Z" fill="white"/>
<path d="M99.6125 111.226H104.438V112.848H101.295V114.8H103.622V116.265H101.295V118.217H104.438V119.828H99.6125V111.229V111.226Z" fill="white"/>
<path d="M105.243 116.982V114.029C105.243 112.284 106.424 111.065 108.133 111.065C110.034 111.065 111.023 112.307 111.023 114.298V114.321H109.341V114.198C109.341 112.929 108.72 112.675 108.133 112.675C107.547 112.675 106.937 112.994 106.937 113.979V117.029C106.937 118.041 107.547 118.344 108.133 118.344C108.915 118.344 109.341 117.964 109.341 116.71V116.599H111.023V116.649C111.023 118.808 110.073 119.955 108.133 119.955C106.428 119.955 105.243 118.735 105.243 116.979V116.982Z" fill="white"/>
<path d="M112.12 111.226H113.703L116.225 116.227V111.226H117.919V119.824H116.336L113.802 114.85V119.824H112.12V111.226Z" fill="white"/>
<path d="M119.142 116.982V114.056C119.142 112.3 120.322 111.068 122.032 111.068C123.741 111.068 124.922 112.3 124.922 114.056V116.982C124.922 118.728 123.726 119.947 122.032 119.947C120.338 119.947 119.142 118.728 119.142 116.982ZM122.032 118.336C122.603 118.336 123.239 118.033 123.239 117.044V113.995C123.239 113.032 122.668 112.679 122.032 112.679C121.434 112.679 120.836 112.998 120.836 113.983V117.032C120.836 117.995 121.395 118.336 122.032 118.336Z" fill="white"/>
<path d="M126.152 111.226H127.835V118.214H130.687V119.824H126.152V111.226Z" fill="white"/>
<path d="M131.308 116.982V114.056C131.308 112.3 132.488 111.068 134.198 111.068C135.907 111.068 137.088 112.3 137.088 114.056V116.982C137.088 118.728 135.892 119.947 134.198 119.947C132.504 119.947 131.308 118.728 131.308 116.982ZM134.198 118.336C134.769 118.336 135.405 118.033 135.405 117.044V113.995C135.405 113.032 134.834 112.679 134.198 112.679C133.6 112.679 133.002 112.998 133.002 113.983V117.032C133.002 117.995 133.562 118.336 134.198 118.336ZM134.209 108.384H135.942L134.662 110.297H133.431L134.213 108.384H134.209Z" fill="white"/>
<path d="M137.989 116.982V114.045C137.989 112.288 139.169 111.068 140.863 111.068C142.558 111.068 143.715 112.265 143.753 113.972H142.071C142.071 113.059 141.595 112.679 140.89 112.679C140.135 112.679 139.683 113.07 139.683 114.217V117.048C139.683 117.926 140.135 118.34 140.863 118.34C141.484 118.34 142.071 117.999 142.071 117.048V116.902H140.875V115.425H143.75V116.986C143.75 118.743 142.569 119.951 140.86 119.951C139.15 119.951 137.985 118.743 137.985 116.986L137.989 116.982Z" fill="white"/>
<path d="M145.049 111.226H146.732V119.824H145.049V111.226Z" fill="white"/>
<path d="M148.023 116.982V114.029C148.023 112.284 149.204 111.065 150.914 111.065C152.815 111.065 153.804 112.307 153.804 114.298V114.321H152.121V114.198C152.121 112.929 151.5 112.675 150.914 112.675C150.327 112.675 149.718 112.994 149.718 113.979V117.029C149.718 118.041 150.327 118.344 150.914 118.344C151.695 118.344 152.121 117.964 152.121 116.71V116.599H153.804V116.649C153.804 118.808 152.853 119.955 150.914 119.955C149.208 119.955 148.023 118.735 148.023 116.979V116.982Z" fill="white"/>
<path d="M154.643 116.982V114.056C154.643 112.3 155.824 111.068 157.533 111.068C159.243 111.068 160.423 112.3 160.423 114.056V116.982C160.423 118.728 159.227 119.947 157.533 119.947C155.839 119.947 154.643 118.728 154.643 116.982ZM157.533 118.336C158.104 118.336 158.741 118.033 158.741 117.044V113.995C158.741 113.032 158.169 112.679 157.533 112.679C156.935 112.679 156.337 112.998 156.337 113.983V117.032C156.337 117.995 156.897 118.336 157.533 118.336Z" fill="white"/>
<path d="M46.9353 123.46H48.1312V132.059H46.9353V123.46Z" fill="white"/>
<path d="M49.8331 123.46H50.9408L54.402 129.777V123.46H55.6094V132.059H54.4863L51.0251 125.765V132.059H49.8292V123.46H49.8331Z" fill="white"/>
<path d="M57.0736 129.194V126.302C57.0736 124.546 58.2427 123.315 59.9369 123.315C61.6311 123.315 62.8117 124.546 62.8117 126.302V129.194C62.8117 130.951 61.6158 132.17 59.9369 132.17C58.258 132.17 57.0736 130.951 57.0736 129.194ZM59.9369 131.024C60.7763 131.024 61.6081 130.487 61.6081 129.244V126.256C61.6081 125.075 60.876 124.465 59.9369 124.465C59.0975 124.465 58.2657 125.002 58.2657 126.245V129.233C58.2657 130.414 58.9978 131.024 59.9369 131.024Z" fill="white"/>
<path d="M63.4211 123.46H64.6898L66.6638 130.437L68.6493 123.46H69.9066L67.2733 132.059H66.0429L63.4211 123.46Z" fill="white"/>
<path d="M72.1949 123.46H73.5364L76.277 132.059H75.0236L74.4372 130.119H71.2443L70.6463 132.059H69.4044L72.1949 123.46ZM74.1459 129.083L72.8656 124.776L71.5509 129.083H74.1459Z" fill="white"/>
<path d="M79.1786 132.159C77.7029 131.986 76.7178 130.805 76.7178 129.194V126.279C76.7178 124.523 77.8869 123.303 79.5811 123.303C81.2753 123.303 82.4559 124.607 82.4559 126.402V126.475H81.26V126.391C81.26 125.378 80.7234 124.465 79.5773 124.465C78.7379 124.465 77.9061 125.002 77.9061 126.245V129.233C77.9061 130.414 78.6382 131.024 79.5773 131.024C80.8345 131.024 81.26 129.961 81.26 129.026V128.941H82.4559V129.026C82.4559 130.709 81.5436 131.963 79.9951 132.159L79.4086 134H78.1782L79.1786 132.159Z" fill="white"/>
<path d="M85.8059 123.46H87.1475L89.8881 132.059H88.6347L88.0483 130.119H84.8554L84.2574 132.059H83.0155L85.8059 123.46ZM84.4184 121.646C84.8324 121.366 85.185 121.267 85.5261 121.267C86.1739 121.267 86.722 121.658 87.3161 121.658C87.6458 121.658 88.0367 121.547 88.4737 121.232V122.133C88.0597 122.452 87.7071 122.548 87.3775 122.548C86.7297 122.548 86.2314 122.145 85.6105 122.122C85.2808 122.122 84.8669 122.233 84.4146 122.548V121.646H84.4184ZM87.7569 129.083L86.4767 124.776L85.162 129.083H87.7569Z" fill="white"/>
<path d="M90.3289 129.194V126.302C90.3289 124.546 91.498 123.315 93.1922 123.315C94.8863 123.315 96.0669 124.546 96.0669 126.302V129.194C96.0669 130.951 94.871 132.17 93.1922 132.17C91.5133 132.17 90.3289 130.951 90.3289 129.194ZM93.1922 131.024C94.0316 131.024 94.8633 130.487 94.8633 129.244V126.256C94.8633 125.075 94.1312 124.465 93.1922 124.465C92.3527 124.465 91.5209 125.002 91.5209 126.245V129.233C91.5209 130.414 92.2531 131.024 93.1922 131.024Z" fill="white"/>
<path d="M100.088 123.46H104.868V124.619H101.284V127.204H103.894V128.266H101.284V130.901H104.868V132.059H100.088V123.46Z" fill="white"/>
<path d="M108.827 123.46H110.023V132.059H108.827V123.46Z" fill="white"/>
<path d="M111.725 123.46H112.833L116.294 129.777V123.46H117.501V132.059H116.378L112.917 125.765V132.059H111.721V123.46H111.725Z" fill="white"/>
<path d="M119.207 123.46H121.963C123.657 123.46 124.838 124.546 124.838 126.644V128.864C124.838 130.951 123.657 132.059 121.963 132.059H119.207V123.46ZM121.829 130.913C122.864 130.913 123.645 130.376 123.645 128.584V126.912C123.645 125.144 122.879 124.619 121.829 124.619H120.403V130.913H121.829Z" fill="white"/>
<path d="M126.179 129.194V123.46H127.375V129.229C127.375 130.487 128.191 131.02 129.046 131.02C129.974 131.02 130.729 130.41 130.729 129.229V123.46H131.925V129.194C131.925 130.951 130.729 132.17 129.05 132.17C127.371 132.17 126.187 130.951 126.187 129.194H126.179ZM129.383 120.584H130.625L129.418 122.498H128.517L129.383 120.584Z" fill="white"/>
<path d="M133.159 129.329H134.34C134.34 130.621 135.022 131.074 136.045 131.074C136.996 131.074 137.701 130.621 137.701 129.72C137.701 128.818 136.873 128.55 135.934 128.281C134.704 127.917 133.278 127.549 133.278 125.731C133.278 124.181 134.278 123.303 135.984 123.303C137.69 123.303 138.801 124.243 138.801 126.095H137.621C137.621 124.914 137 124.412 135.988 124.412C134.976 124.412 134.466 124.876 134.466 125.727C134.466 126.69 135.378 126.947 136.379 127.227C137.586 127.568 138.901 127.959 138.901 129.689C138.901 131.3 137.805 132.201 136.049 132.201C134.294 132.201 133.159 131.25 133.159 129.325V129.329Z" fill="white"/>
<path d="M141.557 124.623H139.483V123.464H144.834V124.623H142.749V132.063H141.553V124.623H141.557Z" fill="white"/>
<path d="M145.992 123.46H148.587C150.331 123.46 151.45 124.534 151.45 126.46V126.705C151.45 128.132 150.707 129.022 149.583 129.328L151.412 132.059H150.036L148.453 129.582H147.184V132.059H145.988V123.46H145.992ZM148.457 128.439C149.48 128.439 150.273 127.925 150.273 126.694V126.402C150.273 125.06 149.491 124.623 148.457 124.623H147.188V128.439H148.457Z" fill="white"/>
<path d="M152.73 123.46H153.926V132.059H152.73V123.46Z" fill="white"/>
<path d="M157.64 123.46H158.982L161.723 132.059H160.469L159.883 130.119H156.69L156.092 132.059H154.85L157.64 123.46ZM159.591 129.083L158.311 124.776L156.997 129.083H159.591Z" fill="white"/>
<path d="M164.965 129.194V126.279C164.965 124.523 166.134 123.303 167.829 123.303C169.523 123.303 170.703 124.607 170.703 126.402V126.475H169.508V126.391C169.508 125.378 168.971 124.465 167.825 124.465C166.985 124.465 166.154 125.002 166.154 126.245V129.233C166.154 130.414 166.886 131.024 167.825 131.024C169.082 131.024 169.508 129.961 169.508 129.026V128.941H170.703V129.026C170.703 130.855 169.619 132.186 167.829 132.186C166.134 132.186 164.965 130.955 164.965 129.198V129.194Z" fill="white"/>
<path d="M171.803 129.194V126.302C171.803 124.546 172.973 123.315 174.667 123.315C176.361 123.315 177.541 124.546 177.541 126.302V129.194C177.541 130.951 176.346 132.17 174.667 132.17C172.988 132.17 171.803 130.951 171.803 129.194ZM174.667 131.024C175.506 131.024 176.338 130.487 176.338 129.244V126.256C176.338 125.075 175.606 124.465 174.667 124.465C173.827 124.465 172.996 125.002 172.996 126.245V129.233C172.996 130.414 173.728 131.024 174.667 131.024Z" fill="white"/>
<path d="M179.002 123.46H180.11L183.571 129.777V123.46H184.778V132.059H183.655L180.194 125.765V132.059H178.998V123.46H179.002Z" fill="white"/>
<path d="M186.484 123.46H191.264V124.619H187.68V127.204H190.29V128.266H187.68V130.901H191.264V132.059H186.484V123.46Z" fill="white"/>
<path d="M192.176 129.194V126.279C192.176 124.523 193.345 123.303 195.039 123.303C196.733 123.303 197.914 124.607 197.914 126.402V126.475H196.718V126.391C196.718 125.378 196.181 124.465 195.035 124.465C194.196 124.465 193.364 125.002 193.364 126.245V129.233C193.364 130.414 194.096 131.024 195.035 131.024C196.293 131.024 196.718 129.961 196.718 129.026V128.941H197.914V129.026C197.914 130.855 196.829 132.186 195.039 132.186C193.345 132.186 192.176 130.955 192.176 129.198V129.194Z" fill="white"/>
<path d="M200.536 124.623H198.462V123.464H203.813V124.623H201.728V132.063H200.532V124.623H200.536Z" fill="white"/>
<path d="M206.071 123.46H207.412L210.153 132.059H208.899L208.313 130.119H205.12L204.522 132.059H203.28L206.071 123.46ZM208.018 129.083L206.738 124.776L205.423 129.083H208.018Z" fill="white"/>
<path d="M211.077 123.46H213.833C215.527 123.46 216.707 124.546 216.707 126.644V128.864C216.707 130.951 215.527 132.059 213.833 132.059H211.077V123.46ZM213.698 130.913C214.733 130.913 215.515 130.376 215.515 128.584V126.912C215.515 125.144 214.749 124.619 213.698 124.619H212.272V130.913H213.698Z" fill="white"/>
<path d="M219.938 123.46H221.28L224.021 132.059H222.767L222.181 130.119H218.988L218.39 132.059H217.148L219.938 123.46ZM221.886 129.083L220.605 124.776L219.291 129.083H221.886Z" fill="white"/>
<path d="M224.362 129.329H225.542C225.542 130.621 226.225 131.074 227.248 131.074C228.199 131.074 228.904 130.621 228.904 129.72C228.904 128.818 228.076 128.55 227.137 128.281C225.906 127.917 224.481 127.549 224.481 125.731C224.481 124.181 225.481 123.303 227.187 123.303C228.892 123.303 230.004 124.243 230.004 126.095H228.823C228.823 124.914 228.202 124.412 227.191 124.412C226.179 124.412 225.669 124.876 225.669 125.727C225.669 126.69 226.581 126.947 227.581 127.227C228.789 127.568 230.104 127.959 230.104 129.689C230.104 131.3 229.007 132.201 227.252 132.201C225.496 132.201 224.362 131.25 224.362 129.325V129.329Z" fill="white"/>
<path d="M185.71 94.3155H192.789C192.789 98.5229 194.943 100.268 198.071 100.268C201.199 100.268 203.25 98.8834 203.25 95.9071C203.25 92.9309 199.968 91.903 196.224 90.7256C191.505 89.1339 186.17 87.1855 186.17 79.998C186.17 73.3782 190.888 69.3741 198.067 69.3741C205.247 69.3741 209.865 74.0456 209.865 81.4862H202.889C202.889 77.6355 200.992 75.8405 197.964 75.8405C194.936 75.8405 193.245 77.2788 193.245 79.998C193.245 83.0778 196.323 84.052 199.911 85.1796C204.679 86.6678 210.321 88.4128 210.321 95.8534C210.321 102.73 205.396 106.834 198.063 106.834C190.731 106.834 185.702 102.063 185.702 94.3116L185.71 94.3155Z" fill="white"/>
<path d="M215.408 70.0414H226.742C233.871 70.0414 239 74.7129 239 83.1776V84.6158C239 93.1342 233.871 97.5985 226.742 97.5985H222.484V106.22H215.408V70.0414ZM226.025 90.8752C229.103 90.8752 232.028 89.4369 232.028 84.5621V83.2274C232.028 77.8886 229.004 76.8109 226.025 76.8109H222.487V90.8713H226.025V90.8752Z" fill="white"/>
<path d="M181.072 84.1096H173.191V91.9951H181.072V84.1096Z" fill="white"/>
<path d="M57.8479 32.4165V24.6576H71.4896V9.3813H57.8479V0H42.4813V32.4127C42.4813 34.2268 42.6346 36.0026 42.9183 37.7362C37.8089 26.6328 26.5896 18.9237 13.5727 18.9237H0V47.8539H13.5727V34.2575C22.9291 34.2575 30.5415 41.8745 30.5415 51.2366C30.5415 60.5988 22.9291 68.2158 13.5727 68.2158V83.5496C31.4077 83.5496 45.8659 69.0826 45.8659 51.2366C45.8659 49.4225 45.7125 47.6467 45.4289 45.9132C50.5383 57.0165 61.7576 64.7256 74.7745 64.7256V49.3918C65.4181 49.3918 57.8479 41.7748 57.8479 32.4127V32.4165Z" fill="#DD1C4A"/>
</svg>
